0
SECTION
2
HEADER
9
$INSUNITS
70
4
9
$ACADVER
1
AC1014
9
$HANDSEED
5
FFFF
0
ENDSEC
0
SECTION
2
TABLES
0
TABLE
2
VPORT
5
8
100
AcDbSymbolTable
0
ENDTAB
0
TABLE
2
LTYPE
5
5
100
AcDbSymbolTable
0
LTYPE
5
14
100
AcDbSymbolTableRecord
100
AcDbLinetypeTableRecord
2
BYBLOCK
70
0
0
LTYPE
5
15
100
AcDbSymbolTableRecord
100
AcDbLinetypeTableRecord
2
BYLAYER
70
0
0
ENDTAB
0
TABLE
2
LAYER
5
2
100
AcDbSymbolTable
70
2
0
LAYER
5
50
100
AcDbSymbolTableRecord
100
AcDbLayerTableRecord
2
0
70
0
6
CONTINUOUS
0
ENDTAB
0
TABLE
2
STYLE
5
3
100
AcDbSymbolTable
70
1
0
STYLE
5
11
100
AcDbSymbolTableRecord
100
AcDbTextStyleTableRecord
2
STANDARD
70
0
0
ENDTAB
0
TABLE
2
VIEW
5
6
100
AcDbSymbolTable
70
0
0
ENDTAB
0
TABLE
2
UCS
5
7
100
AcDbSymbolTable
70
0
0
ENDTAB
0
TABLE
2
APPID
5
9
100
AcDbSymbolTable
70
2
0
APPID
5
12
100
AcDbSymbolTableRecord
100
AcDbRegAppTableRecord
2
ACAD
70
0
0
ENDTAB
0
TABLE
2
DIMSTYLE
5
A
100
AcDbSymbolTable
70
1
0
ENDTAB
0
TABLE
2
BLOCK_RECORD
5
1
100
AcDbSymbolTable
70
1
0
BLOCK_RECORD
5
1F
100
AcDbSymbolTableRecord
100
AcDbBlockTableRecord
2
*MODEL_SPACE
0
BLOCK_RECORD
5
1B
100
AcDbSymbolTableRecord
100
AcDbBlockTableRecord
2
*PAPER_SPACE
0
ENDTAB
0
ENDSEC
0
SECTION
2
BLOCKS
0
BLOCK
5
20
100
AcDbEntity
100
AcDbBlockBegin
2
*MODEL_SPACE
0
ENDBLK
5
21
100
AcDbEntity
100
AcDbBlockEnd
0
BLOCK
5
1C
100
AcDbEntity
100
AcDbBlockBegin
2
*PAPER_SPACE
0
ENDBLK
5
1D
100
AcDbEntity
100
AcDbBlockEnd
0
ENDSEC
0
SECTION
2
ENTITIES
0
LWPOLYLINE
5
100
100
AcDbEntity
8
0
100
AcDbPolyline
90
4
70
1
43
0.0
10
329.74519513139973
20
99.999999936883654
10
329.74519513139973
20
-138.37801445642856
10
170.00000322071622
20
-138.37801445642856
10
170.00000322071622
20
99.999999936883682
0
CIRCLE
5
101
100
AcDbEntity
8
0
100
AcDbCircle
10
179.90371704101562
20
80.180912017822294
30
0
40
2.9999999999999942
210
0
220
0
230
1
0
CIRCLE
5
102
100
AcDbEntity
8
0
100
AcDbCircle
10
180.32686233520508
20
-80.092086791992159
30
0
40
3.0000000000000004
210
-4.9303806576313238e-32
220
0
230
1
0
CIRCLE
5
103
100
AcDbEntity
8
0
100
AcDbCircle
10
318.18852505850577
20
79.947641655449502
30
1.1102230246251565e-15
40
3.0000000000001008
210
0
220
0
230
1
0
CIRCLE
5
104
100
AcDbEntity
8
0
100
AcDbCircle
10
315.87333679199219
20
-80.103969573974581
30
0
40
3.0000000000000004
210
-4.9303806576313238e-32
220
0
230
1
0
CIRCLE
5
105
100
AcDbEntity
8
0
100
AcDbCircle
10
290.13777785485405
20
88.665277459853854
30
1.1102230246251565e-14
40
1.5500000000000145
210
0
220
0
230
1
0
CIRCLE
5
106
100
AcDbEntity
8
0
100
AcDbCircle
10
290.13777785485405
20
60.66527745985384
30
7.7715611723760958e-15
40
1.5500000000000145
210
0
220
0
230
1
0
CIRCLE
5
107
100
AcDbEntity
8
0
100
AcDbCircle
10
290.13777785485405
20
32.665277459853847
30
4.4408920985006262e-15
40
1.5500000000000145
210
0
220
0
230
1
0
CIRCLE
5
108
100
AcDbEntity
8
0
100
AcDbCircle
10
290.13777785485405
20
4.6652774598538409
30
0
40
1.5500000000000145
210
0
220
0
230
1
0
CIRCLE
5
109
100
AcDbEntity
8
0
100
AcDbCircle
10
263.47111118818736
20
88.665277459853854
30
1.1102230246251565e-14
40
1.5500000000000145
210
0
220
0
230
1
0
CIRCLE
5
110
100
AcDbEntity
8
0
100
AcDbCircle
10
263.47111118818736
20
60.66527745985384
30
7.7715611723760958e-15
40
1.5500000000000145
210
0
220
0
230
1
0
CIRCLE
5
111
100
AcDbEntity
8
0
100
AcDbCircle
10
263.47111118818736
20
32.665277459853847
30
4.4408920985006262e-15
40
1.5500000000000145
210
0
220
0
230
1
0
CIRCLE
5
112
100
AcDbEntity
8
0
100
AcDbCircle
10
263.47111118818736
20
4.6652774598538409
30
0
40
1.5500000000000145
210
0
220
0
230
1
0
CIRCLE
5
113
100
AcDbEntity
8
0
100
AcDbCircle
10
236.80444452152074
20
88.665277459853854
30
1.1102230246251565e-14
40
1.5500000000000145
210
0
220
0
230
1
0
CIRCLE
5
114
100
AcDbEntity
8
0
100
AcDbCircle
10
236.80444452152074
20
60.66527745985384
30
7.7715611723760958e-15
40
1.5500000000000145
210
0
220
0
230
1
0
CIRCLE
5
115
100
AcDbEntity
8
0
100
AcDbCircle
10
236.80444452152074
20
32.665277459853847
30
4.4408920985006262e-15
40
1.5500000000000145
210
0
220
0
230
1
0
CIRCLE
5
116
100
AcDbEntity
8
0
100
AcDbCircle
10
236.80444452152074
20
4.6652774598538409
30
0
40
1.5500000000000145
210
0
220
0
230
1
0
CIRCLE
5
117
100
AcDbEntity
8
0
100
AcDbCircle
10
210.13777785485405
20
88.665277459853854
30
1.1102230246251565e-14
40
1.5500000000000145
210
0
220
0
230
1
0
CIRCLE
5
118
100
AcDbEntity
8
0
100
AcDbCircle
10
210.13777785485405
20
60.66527745985384
30
7.7715611723760958e-15
40
1.5500000000000145
210
0
220
0
230
1
0
CIRCLE
5
119
100
AcDbEntity
8
0
100
AcDbCircle
10
210.13777785485405
20
32.665277459853847
30
4.4408920985006262e-15
40
1.5500000000000145
210
0
220
0
230
1
0
CIRCLE
5
120
100
AcDbEntity
8
0
100
AcDbCircle
10
210.13777785485405
20
4.6652774598538409
30
0
40
1.5500000000000145
210
0
220
0
230
1
0
CIRCLE
5
121
100
AcDbEntity
8
0
100
AcDbCircle
10
290.11357508670551
20
-41.375915887644716
30
0
40
1.5499999999999912
210
0
220
0
230
1
0
CIRCLE
5
122
100
AcDbEntity
8
0
100
AcDbCircle
10
263.44690842003882
20
-41.375915887644716
30
0
40
1.5499999999999912
210
0
220
0
230
1
0
CIRCLE
5
123
100
AcDbEntity
8
0
100
AcDbCircle
10
236.78024175337217
20
-41.375915887644716
30
1.1102230246251565e-15
40
1.5499999999999912
210
0
220
0
230
1
0
CIRCLE
5
124
100
AcDbEntity
8
0
100
AcDbCircle
10
210.11357508670551
20
-41.375915887644716
30
0
40
1.5499999999999912
210
0
220
0
230
1
0
CIRCLE
5
125
100
AcDbEntity
8
0
100
AcDbCircle
10
290.11357508670551
20
-83.375915887644709
30
0
40
1.5499999999999912
210
0
220
0
230
1
0
CIRCLE
5
126
100
AcDbEntity
8
0
100
AcDbCircle
10
263.44690842003882
20
-83.375915887644709
30
-1.1102230246251565e-15
40
1.5499999999999912
210
0
220
0
230
1
0
CIRCLE
5
127
100
AcDbEntity
8
0
100
AcDbCircle
10
236.78024175337217
20
-83.375915887644709
30
0
40
1.5499999999999912
210
0
220
0
230
1
0
CIRCLE
5
128
100
AcDbEntity
8
0
100
AcDbCircle
10
210.11357508670551
20
-83.375915887644709
30
0
40
1.5499999999999912
210
0
220
0
230
1
0
CIRCLE
5
129
100
AcDbEntity
8
0
100
AcDbCircle
10
290.11357508670551
20
-125.37591588764471
30
0
40
1.5499999999999912
210
0
220
0
230
1
0
CIRCLE
5
130
100
AcDbEntity
8
0
100
AcDbCircle
10
263.44690842003882
20
-125.37591588764471
30
0
40
1.5499999999999912
210
0
220
0
230
1
0
CIRCLE
5
131
100
AcDbEntity
8
0
100
AcDbCircle
10
236.78024175337217
20
-125.37591588764471
30
0
40
1.5499999999999912
210
0
220
0
230
1
0
CIRCLE
5
132
100
AcDbEntity
8
0
100
AcDbCircle
10
210.11357508670551
20
-125.37591588764471
30
0
40
1.5499999999999912
210
0
220
0
230
1
0
CIRCLE
5
133
100
AcDbEntity
8
0
100
AcDbCircle
10
273.10452924589219
20
-107.48872511794117
30
0
40
1.5000000000000222
210
0
220
0
230
1
0
CIRCLE
5
134
100
AcDbEntity
8
0
100
AcDbCircle
10
273.13318252563477
20
22.56101131439209
30
-1.1102230246251565e-15
40
1.500000000000016
210
0
220
0
230
1
0
CIRCLE
5
135
100
AcDbEntity
8
0
100
AcDbCircle
10
273.27319088739449
20
52.003669174137592
30
0
40
1.500000000000016
210
0
220
0
230
1
0
CIRCLE
5
136
100
AcDbEntity
8
0
100
AcDbCircle
10
229.7105348223904
20
53.010426219926792
30
0
40
1.500000000000016
210
0
220
0
230
1
0
CIRCLE
5
137
100
AcDbEntity
8
0
100
AcDbCircle
10
229.75727453101925
20
43.009859060916426
30
1.1102230246251565e-15
40
1.500000000000016
210
0
220
0
230
1
0
CIRCLE
5
138
100
AcDbEntity
8
0
100
AcDbCircle
10
229.85399274663797
20
32.967854386024975
30
0
40
1.5000000000000191
210
0
220
0
230
1
0
CIRCLE
5
139
100
AcDbEntity
8
0
100
AcDbCircle
10
273.29932607166819
20
41.995731225084747
30
0
40
1.500000000000016
210
0
220
0
230
1
0
CIRCLE
5
140
100
AcDbEntity
8
0
100
AcDbCircle
10
273.22581649056895
20
32.0411598674727
30
0
40
1.5000000000000191
210
0
220
0
230
1
0
CIRCLE
5
141
100
AcDbEntity
8
0
100
AcDbCircle
10
200.00000620094846
20
-80.000001255209213
30
0
40
4.2500000000000071
210
0
220
0
230
1
0
CIRCLE
5
142
100
AcDbEntity
8
0
100
AcDbCircle
10
300.00000769106458
20
-80.000001255209213
30
0
40
4.2500000000000071
210
0
220
0
230
1
0
CIRCLE
5
143
100
AcDbEntity
8
0
100
AcDbCircle
10
300.00000769106458
20
80.000001128976578
30
0
40
4.2500000000000071
210
0
220
0
230
1
0
CIRCLE
5
144
100
AcDbEntity
8
0
100
AcDbCircle
10
200.00000620094846
20
80.000001128976578
30
0
40
4.2500000000000071
210
0
220
0
230
1
0
ENDSEC
0
SECTION
2
OBJECTS
0
DICTIONARY
5
C
100
AcDbDictionary
3
ACAD_GROUP
350
D
3
ACAD_MLINESTYLE
350
17
0
DICTIONARY
5
D
100
AcDbDictionary
0
DICTIONARY
5
1A
330
C
100
AcDbDictionary
0
DICTIONARY
5
17
100
AcDbDictionary
0
ENDSEC
0
EOF
